<svg xmlns="http://www.w3.org/2000/svg" width="24" height="24" viewBox="0 0 24 24">
  <g fill-rule="evenodd">
    <path d="M12.780458,11.9494253 L17.818626,6.89195402 C18.0333846,6.67637252 18.0333846,6.32684588 17.818626,6.11126439 C17.6038673,5.8956829 17.2556747,5.89568289 17.040916,6.11126437 L12.0027481,11.1687356 L6.96458015,6.11126437 C6.74982148,5.89568287 6.4016289,5.89568287 6.18687023,6.11126437 C5.97211156,6.32684587 5.97211156,6.67637252 6.18687023,6.89195402 L11.2250382,11.9494253 L6.17679389,17.0170115 C5.96203524,17.232593 5.96203525,17.5821196 6.17679391,17.7977011 C6.39155257,18.0132827 6.73974515,18.0132827 6.95450382,17.7977011 L12,12.7291954 L17.0482443,17.7967816 C17.1871687,17.9362383 17.3896556,17.9907024 17.57943,17.9396577 C17.7692045,17.888613 17.9174351,17.7398144 17.968285,17.5493129 C18.0191349,17.3588114 17.9648787,17.1555487 17.8259542,17.016092 L12.780458,11.9494253 Z"/>
    <path fill-rule="nonzero" d="M20.4201527,3.5016092 C16.4027612,-0.530834042 10.1071938,-1.15298561 5.38358776,2.01563948 C0.659981654,5.18426456 -1.17606423,11.2611541 0.998308122,16.5299063 C3.17268047,21.7986586 8.75187396,24.7918427 14.3238595,23.6789376 C19.8958448,22.5660325 23.9087362,17.6569997 23.9083969,11.954023 C23.9168274,8.78197606 22.6607559,5.73837175 20.4201527,3.5016092 Z M19.6424427,19.6266667 C15.9957083,23.2866188 10.2813194,23.8510268 5.9939205,20.9747261 C1.70652155,18.0984255 0.0401915318,12.5824916 2.01397745,7.80020335 C3.98776336,3.01791514 9.05194816,0.301182688 14.1095209,1.31142842 C19.1670936,2.32167416 22.809475,6.77753561 22.8091603,11.954023 C22.8170367,14.8333538 21.6770697,17.5961804 19.6433588,19.6266667 L19.6424427,19.6266667 Z"/>
  </g>
</svg>
