<svg xmlns="http://www.w3.org/2000/svg" xmlns:xlink="http://www.w3.org/1999/xlink" width="400" height="400" viewBox="0 0 400 400">
  <defs>
    <path id="logo-a" d="M286.974134,36.2270486 L363.772951,113.025866 C411.807439,161.060354 411.807439,238.939646 363.772951,286.974134 L286.974134,363.772951 C238.939646,411.807439 161.060354,411.807439 113.025866,363.772951 L36.2270486,286.974134 C-11.8074393,238.939646 -11.8074393,161.060354 36.2270486,113.025866 L113.025866,36.2270486 C161.060354,-11.8074393 238.939646,-11.8074393 286.974134,36.2270486 Z M239.59798,114.224437 C217.728619,92.3550766 182.271381,92.3550766 160.40202,114.224437 L114.224437,160.40202 C92.3550766,182.271381 92.3550766,217.728619 114.224437,239.59798 L160.40202,285.775563 C182.271381,307.644923 217.728619,307.644923 239.59798,285.775563 L285.775563,239.59798 C307.644923,217.728619 307.644923,182.271381 285.775563,160.40202 L239.59798,114.224437 Z"/>
    <linearGradient id="logo-b" x1="14.331%" x2="91.964%" y1="24.509%" y2="83.293%">
      <stop offset="0%" stop-color="#71E538"/>
      <stop offset="100%" stop-color="#2B650F"/>
    </linearGradient>
    <linearGradient id="logo-d" x1="68.031%" x2="11.932%" y1="0%" y2="76.459%">
      <stop offset="0%" stop-color="#1A536C"/>
      <stop offset="100%" stop-color="#2EAFE6"/>
    </linearGradient>
    <linearGradient id="logo-e" x1="73.761%" x2="30.084%" y1="11.4%" y2="95.788%">
      <stop offset="0%" stop-color="#E843CF"/>
      <stop offset="100%" stop-color="#721D67"/>
    </linearGradient>
    <linearGradient id="logo-f" x1="-7.793%" x2="63.94%" y1="50%" y2="89.34%">
      <stop offset="0%" stop-color="#BC6008"/>
      <stop offset="100%" stop-color="#F3CE03"/>
    </linearGradient>
  </defs>
  <g fill="none" fill-rule="evenodd">
    <mask id="logo-c" fill="#fff">
      <use xlink:href="#logo-a"/>
    </mask>
    <use fill="#44566C" fill-opacity=".55" xlink:href="#logo-a"/>
    <path fill="url(#logo-b)" d="M287.26239,36.8129431 L300.802733,50.3532858 C348.995092,98.5456452 348.995092,176.680898 300.802733,224.873257 L281.351107,244.096914 L36.5153049,113.040057 L112.742419,36.8129431 C160.934778,-11.3794163 239.070031,-11.3794163 287.26239,36.8129431 Z" mask="url(#logo-c)"/>
    <path fill="url(#logo-d)" d="M36.196156,112.147846 L49.7364986,98.6075035 C97.928858,50.4151441 182.314219,45.8111942 237.471608,111.880985 L112.42327,362.894932 L36.196156,286.667818 C-11.9962034,238.475458 -11.9962034,160.340206 36.196156,112.147846 Z" mask="url(#logo-c)"/>
    <path fill="url(#logo-e)" d="M302.458427,52.1524824 L363.604151,113.13249 C411.796511,161.324849 411.796511,239.460102 363.604151,287.652461 L350.063809,301.192804 C301.871449,349.385163 223.736197,349.385163 175.543837,301.192804 L160.582956,285.811704 C249.783869,270.190824 305.172201,237.293998 326.747949,187.121225 C346.054448,136.02869 337.957941,91.039109 302.458427,52.1524824 Z" mask="url(#logo-c)"/>
    <path fill="url(#logo-f)" d="M363.604151,287.022428 L287.377037,363.249542 C239.184678,411.441901 161.049425,411.441901 112.857066,363.249542 L99.3167234,349.709199 C51.1243639,301.51684 51.1243639,223.381587 99.3167234,175.189227 L118.439466,156.354587 C132.583299,246.021243 161.277298,301.363771 204.521465,322.382169 C267.115907,349.627084 320.143469,337.840504 363.604151,287.022428 Z" mask="url(#logo-c)"/>
  </g>
</svg>
