<svg xmlns="http://www.w3.org/2000/svg" width="24" height="24" viewBox="0 0 24 24">
  <path fill="#FFF" fill-rule="evenodd" d="M12.978852,13.6513761 C12.8338369,13.8715596 12.4712991,13.8715596 12.326284,13.6513761 C12.1087613,13.4311927 12.1087613,13.1376147 12.326284,12.9174312 C12.9063444,12.4036697 13.3413897,11.8165138 13.6314199,11.1559633 C13.9214502,10.4954128 14.0664653,9.76146789 14.0664653,9.02752294 C14.0664653,8.0733945 13.8489426,7.19266055 13.4138973,6.4587156 C12.978852,5.65137615 12.326284,4.99082569 11.5287009,4.55045872 C11.3111782,4.40366972 11.2386707,4.11009174 11.3836858,3.81651376 C11.5287009,3.59633028 11.8187311,3.52293578 12.1087613,3.66972477 C12.978852,4.25688073 13.776435,4.99082569 14.2839879,5.94495413 C14.7915408,6.89908257 15.081571,7.9266055 15.081571,9.02752294 C15.081571,9.90825688 14.8640483,10.7889908 14.5740181,11.5963303 C14.2114804,12.4036697 13.7039275,13.0642202 12.978852,13.6513761 Z M8.918429,0 C11.3836858,0 13.5589124,1.02752294 15.2265861,2.64220183 C16.8217523,4.25688073 17.836858,6.53211009 17.836858,9.02752294 C17.836858,11.2293578 16.9667674,13.2844037 15.6616314,14.8990826 L16.8217523,16 L17.0392749,15.706422 C17.4018127,15.412844 17.7643505,15.266055 18.1993958,15.266055 C18.5619335,15.266055 18.9969789,15.412844 19.2870091,15.706422 L23.5649547,19.9633028 C23.8549849,20.3302752 24,20.6972477 24,21.1376147 C24,21.5045872 23.8549849,21.9449541 23.5649547,22.2385321 L22.2598187,23.559633 C21.9697885,23.853211 21.6072508,24 21.1722054,24 C20.7371601,24 20.3746224,23.853211 20.0845921,23.559633 L15.8066465,19.3027523 C15.5166163,18.9357798 15.3716012,18.5688073 15.3716012,18.1284404 C15.3716012,17.7614679 15.5166163,17.3211009 15.8066465,17.0275229 L16.0966767,16.733945 L14.9365559,15.6330275 C13.4138973,17.1009174 11.2386707,18.0550459 8.918429,18.0550459 C6.45317221,18.0550459 4.20543807,17.0275229 2.6102719,15.412844 C1.01510574,13.7247706 0,11.5229358 0,9.02752294 C0,6.53211009 1.01510574,4.25688073 2.6102719,2.64220183 C4.20543807,1.02752294 6.45317221,0 8.918429,0 Z M14.5015106,3.37614679 C13.0513595,1.90825688 11.0936556,1.02752294 8.918429,1.02752294 C6.74320242,1.02752294 4.78549849,1.90825688 3.33534743,3.37614679 C1.88519637,4.8440367 1.01510574,6.82568807 1.01510574,9.02752294 C1.01510574,11.2293578 1.88519637,13.2110092 3.33534743,14.6788991 C4.78549849,16.0733945 6.74320242,17.0275229 8.918429,17.0275229 C11.0936556,17.0275229 13.0513595,16.0733945 14.5015106,14.6788991 L14.5740181,14.5321101 L14.6465257,14.5321101 C15.9516616,13.0642202 16.8217523,11.1559633 16.8217523,9.02752294 C16.8217523,6.82568807 15.8791541,4.8440367 14.5015106,3.37614679 Z"/>
</svg>
